<?xml version="1.0" standalone="no"?>
<!DOCTYPE svg PUBLIC "-//W3C//DTD SVG 20010904//EN"
 "http://www.w3.org/TR/2001/REC-SVG-20010904/DTD/svg10.dtd">
<svg version="1.0" xmlns="http://www.w3.org/2000/svg"
 width="1024.000000pt" height="401.000000pt" viewBox="0 0 1024.000000 401.000000"
 preserveAspectRatio="xMidYMid meet">
<metadata>
Created by potrace 1.16, written by Peter Selinger 2001-2019
</metadata>
<g transform="translate(0.000000,401.000000) scale(0.100000,-0.100000)"
fill="#000000" stroke="none">
<path d="M0 2005 l0 -2005 5120 0 5120 0 0 2005 0 2005 -5120 0 -5120 0 0
-2005z m4840 1657 c0 -4 26 -34 57 -65 63 -63 61 -66 -39 -45 -82 17 -88 8
-57 -82 13 -38 29 -70 35 -70 6 0 19 9 29 20 34 38 111 80 146 80 43 0 142
-30 191 -58 l37 -21 -37 72 c-48 93 -95 127 -202 145 -125 21 -118 32 20 31
69 0 145 -4 170 -7 41 -6 46 -10 57 -44 7 -20 18 -78 25 -130 l13 -93 50 -8
c45 -8 288 -64 375 -87 19 -5 73 -10 119 -11 l84 -3 83 -82 c153 -151 204
-182 204 -122 l0 23 21 -25 c47 -59 129 -174 129 -182 0 -6 9 -21 20 -35 11
-15 19 -27 17 -29 -2 -2 -34 8 -73 22 -98 36 -104 37 -104 27 0 -4 36 -49 80
-100 79 -91 118 -115 145 -93 11 9 17 5 29 -17 19 -38 58 -154 53 -159 -6 -7
-342 355 -392 422 -67 89 -178 205 -169 174 18 -55 7 -176 -21 -250 -15 -39
-26 -73 -24 -74 2 -2 42 -25 89 -52 105 -60 252 -203 328 -319 28 -44 58 -90
67 -102 10 -15 29 -23 67 -28 29 -3 66 -9 82 -12 l29 -5 -6 47 c-6 42 -5 46
11 40 25 -10 283 -19 326 -11 20 4 51 19 69 34 54 46 130 81 206 94 102 17
201 -4 296 -62 96 -60 135 -60 232 -2 73 44 96 53 263 99 158 43 305 32 393
-28 18 -13 55 -44 82 -69 48 -45 54 -47 130 -55 44 -5 107 -8 140 -7 96 2 383
2 470 0 44 -1 108 2 143 6 55 8 67 13 88 41 13 18 24 36 24 40 0 5 13 29 30
55 59 92 172 146 305 144 94 -1 160 -21 226 -70 58 -43 89 -90 120 -184 23
-73 24 -82 24 -415 0 -332 -1 -342 -24 -410 -13 -38 -32 -84 -42 -101 -26 -44
-25 -53 24 -120 150 -205 151 -505 3 -711 -56 -79 -127 -127 -240 -166 -58
-19 -84 -20 -601 -21 -529 -1 -541 -1 -605 21 -36 12 -82 29 -102 37 -35 15
-41 15 -75 0 -155 -66 -255 -83 -388 -64 -70 10 -108 10 -196 -1 -95 -11 -123
-10 -221 4 -131 19 -510 17 -684 -4 -86 -11 -116 -10 -210 4 -92 15 -131 16
-244 7 -74 -5 -171 -13 -215 -16 -59 -4 -106 0 -180 14 l-99 21 -101 -21 c-71
-14 -120 -19 -167 -15 -68 6 -178 35 -178 47 0 4 19 15 42 26 146 66 165 114
65 164 -15 8 -45 29 -67 47 l-39 33 1 -84 c1 -113 -17 -185 -49 -197 -39 -14
-42 -11 -31 29 15 51 14 206 -1 268 l-12 51 -74 11 c-40 6 -79 13 -85 14 -27
6 -44 -74 -44 -207 -1 -114 2 -136 22 -179 12 -27 22 -50 22 -51 0 -1 -10 -2
-21 -1 -15 1 -31 17 -50 51 -62 110 -58 311 9 388 28 32 0 17 -135 -70 l-134
-86 3 -146 c3 -144 3 -146 28 -158 22 -11 15 -13 -60 -13 -75 0 -82 2 -60 13
l25 13 3 218 2 218 -42 -7 c-24 -4 -40 -4 -36 0 4 5 3 14 -3 22 -9 10 -7 13 9
13 34 0 47 26 35 71 -6 21 -8 39 -6 39 2 0 19 -7 39 -15 37 -15 52 -29 70 -60
6 -11 25 -24 42 -30 44 -13 40 -25 -8 -25 l-40 0 0 -47 c0 -27 4 -53 8 -60 5
-8 39 9 110 58 56 38 108 69 116 69 26 0 26 14 -1 42 -26 27 -26 28 -5 28 12
0 22 -5 22 -11 0 -7 8 -9 23 -4 12 3 34 8 49 9 33 3 82 44 129 108 42 56 57
119 64 276 3 53 8 113 11 132 6 44 -16 68 -70 77 -32 5 -41 1 -81 -36 -179
-165 -423 -227 -645 -163 -79 23 -134 50 -219 108 -47 33 -73 44 -101 44 -34
0 -38 -3 -44 -31 -3 -17 -6 -52 -6 -77 0 -51 -7 -48 -34 14 -18 41 -18 42 3
63 l22 22 -44 52 c-95 113 -147 262 -147 422 l0 99 97 145 c205 307 352 406
613 418 106 5 120 3 184 -21 99 -38 133 -60 206 -137 60 -63 69 -69 106 -69
37 0 44 -4 75 -47 19 -27 53 -84 76 -128 23 -44 43 -74 43 -67 0 6 11 12 24
12 13 0 50 10 81 22 47 18 54 23 39 30 -11 5 15 5 56 1 41 -3 116 -7 166 -7
95 0 125 11 117 45 -3 9 5 23 16 31 20 14 20 16 4 30 -46 40 -85 51 -165 45
-43 -3 -84 -10 -91 -15 -10 -9 -85 -32 -154 -49 -15 -4 -25 0 -29 11 -5 14 -9
14 -31 -4 -40 -31 -45 -24 -14 23 37 55 51 100 45 140 -4 27 -3 29 5 10 6 -12
11 -44 13 -72 2 -31 7 -46 13 -41 5 4 41 18 79 30 54 18 81 21 131 16 60 -6
178 -41 225 -66 44 -23 102 -85 127 -134 l26 -50 27 33 c21 24 33 31 48 27 15
-5 22 0 32 24 7 16 9 41 6 55 -20 78 -223 290 -304 315 -20 7 -66 26 -102 42
-89 41 -203 78 -238 78 -22 0 -42 14 -88 60 -32 34 -74 67 -92 75 -19 8 -64
43 -100 79 -119 114 -155 127 -387 146 -99 8 -123 6 -239 -17 -180 -35 -186
-34 -302 72 -85 79 -112 112 -71 88 40 -22 157 -120 165 -138 14 -29 92 -31
212 -4 153 34 386 25 480 -18 41 -19 136 -82 166 -111 40 -39 75 -52 221 -82
51 -11 109 -26 129 -35 20 -8 42 -15 48 -15 18 0 56 94 56 137 0 37 -3 41 -42
58 -24 10 -50 26 -58 35 -38 42 -222 167 -299 202 -201 92 -300 127 -289 100
2 -5 36 -37 76 -71 40 -35 71 -65 68 -68 -3 -3 -71 34 -151 82 -203 121 -246
135 -311 94 -30 -18 -119 -132 -132 -169 -9 -27 -116 -154 -119 -143 -3 9 41
134 78 222 12 28 5 38 -15 22 -16 -14 -56 -6 -56 10 0 6 10 31 21 57 17 36 20
57 15 98 -10 86 -11 87 -72 79 -30 -3 -54 -4 -54 0 0 3 12 16 27 29 l26 23
-44 8 -44 7 30 10 c23 7 204 42 248 47 4 1 7 -3 7 -7z m755 -110 c39 -16 93
-42 120 -57 28 -15 64 -34 80 -43 17 -8 56 -35 89 -59 32 -25 64 -47 71 -49 8
-3 16 -12 19 -19 6 -17 -94 27 -174 76 -31 19 -74 42 -97 53 -23 10 -39 24
-37 30 6 16 -157 76 -223 83 -77 8 -65 23 15 18 44 -3 91 -14 137 -33z m-1220
-97 c-66 -30 -78 -45 -65 -79 5 -15 10 -29 10 -30 0 -2 -15 -6 -32 -10 l-33
-7 25 -19 25 -19 -28 -10 c-16 -6 -35 -11 -43 -11 -22 0 -86 -35 -108 -59 -21
-23 -15 -51 11 -51 10 0 50 9 88 20 39 11 79 20 89 20 19 0 19 0 0 -21 -10
-12 -37 -30 -59 -41 -22 -11 -47 -26 -55 -33 -8 -7 -39 -21 -69 -31 -30 -10
-56 -26 -58 -34 -2 -8 -23 -26 -46 -39 -58 -33 -164 -125 -217 -189 -52 -60
-90 -148 -90 -206 0 -22 -4 -78 -10 -125 -5 -47 -12 -117 -16 -155 -9 -105
-24 -67 -31 83 -6 130 -7 132 -33 146 -39 20 -53 41 -46 70 8 33 31 23 56 -24
16 -30 19 -32 20 -14 0 20 66 151 101 201 13 18 107 124 178 201 33 36 131
223 131 252 0 8 -7 37 -16 64 -17 47 -17 48 7 66 13 10 27 19 30 19 4 0 10
-24 13 -52 l8 -53 20 25 c70 87 105 112 213 151 70 26 90 22 30 -6z m-225 -47
c0 -16 -3 -19 -11 -11 -6 6 -8 16 -5 22 11 17 16 13 16 -11z m-140 -225 c0
-18 -35 -16 -76 3 -44 21 -50 31 -29 54 16 18 18 17 61 -13 24 -17 44 -37 44
-44z m573 -272 c-3 -29 -1 -51 5 -55 20 -12 -1 -45 -68 -109 -51 -48 -77 -84
-104 -139 -20 -41 -36 -83 -36 -92 0 -31 -94 -301 -98 -282 -2 10 4 46 14 80
12 42 18 98 18 182 l1 122 82 88 c47 51 102 125 129 172 26 45 51 82 55 82 4
0 5 -22 2 -49z m717 -86 c19 -19 32 -35 29 -35 -3 0 -20 16 -39 35 -19 19 -32
35 -29 35 3 0 20 -16 39 -35z m-4754 -12 c-10 -10 -19 5 -10 18 6 11 8 11 12
0 2 -7 1 -15 -2 -18z m3646 -159 c43 -27 80 -56 84 -64 23 -61 25 -160 3 -160
-5 0 -25 34 -44 75 -26 57 -51 91 -104 144 -66 65 -84 98 -37 68 12 -8 56 -36
98 -63z m-3692 -84 c0 -29 -4 -40 -15 -40 -11 0 -15 11 -15 40 0 29 4 40 15
40 11 0 15 -11 15 -40z m50 6 c0 -19 6 -37 13 -39 6 -3 2 -6 -10 -6 -20 -1
-23 4 -23 39 0 22 5 40 10 40 6 0 10 -15 10 -34z m-110 -58 c0 -57 -3 -78 -10
-68 -13 20 -13 150 0 150 6 0 10 -34 10 -82z m46 -35 c0 -10 4 -17 9 -16 6 1
9 -23 7 -60 -3 -45 -6 -57 -14 -44 -5 10 -12 15 -16 13 -7 -4 -4 89 3 112 6
18 13 15 11 -5z m64 -139 c0 -28 -4 -43 -10 -39 -5 3 -10 26 -10 51 0 28 4 43
10 39 6 -3 10 -26 10 -51z m0 -109 c0 -62 -17 -65 -22 -4 -1 28 -1 52 1 55 11
11 21 -12 21 -51z m-50 -65 c0 -22 -5 -42 -11 -45 -6 -4 -8 -14 -5 -22 3 -8 1
-11 -5 -8 -15 10 -8 124 8 118 8 -3 13 -22 13 -43z m-60 -71 c0 -53 -17 -58
-21 -6 -3 30 0 44 9 44 7 0 12 -15 12 -38z m-60 -79 c0 -38 -4 -50 -15 -50
-11 0 -15 11 -15 41 0 24 -4 38 -10 34 -5 -3 -10 -4 -10 0 0 4 30 20 48 24 1
1 2 -21 2 -49z m133 23 c-7 -2 -13 -20 -13 -38 0 -18 6 -36 13 -38 6 -3 -13
-6 -43 -6 l-56 -1 4 35 c5 43 22 47 22 5 0 -20 5 -30 15 -30 23 0 20 67 -2 73
-10 3 2 5 27 5 25 0 39 -2 33 -5z m170 0 c-13 -2 -33 -2 -45 0 -13 2 -3 4 22
4 25 0 35 -2 23 -4z m-133 -38 c0 -14 -4 -25 -10 -25 -5 0 -10 11 -10 25 0 14
5 25 10 25 6 0 10 -11 10 -25z m133 -42 c-13 -2 -33 -2 -45 0 -13 2 -3 4 22 4
25 0 35 -2 23 -4z m-237 -48 c-8 -8 -17 -15 -20 -15 -3 0 -3 7 0 15 4 8 13 15
21 15 12 0 12 -2 -1 -15z m54 -10 c0 -8 -7 -15 -15 -15 -8 0 -15 5 -15 11 0 5
5 7 10 4 6 -3 10 -1 10 4 0 6 2 11 5 11 3 0 5 -7 5 -15z m-122 -46 c-6 -4 -8
-11 -4 -17 3 -5 -1 -15 -9 -22 -13 -11 -15 -7 -15 23 0 19 6 37 13 40 16 5 29
-15 15 -24z m172 -24 c0 -45 -14 -45 -17 0 -2 19 2 35 7 35 6 0 10 -16 10 -35z
m7 -237 c-2 -18 -4 -4 -4 32 0 36 2 50 4 33 2 -18 2 -48 0 -65z m-117 -128 c0
-76 -3 -90 -16 -90 -11 0 -14 5 -10 16 3 9 6 49 6 90 0 43 4 74 10 74 6 0 10
-37 10 -90z m3293 75 c42 0 77 -2 77 -5 0 -3 -7 -14 -16 -25 -12 -16 -25 -19
-80 -17 -37 1 -82 7 -100 14 -33 12 -36 10 -66 -19 l-31 -31 124 5 c68 2 119
1 112 -4 -6 -4 -25 -26 -42 -47 -22 -27 -41 -40 -61 -43 -46 -5 -136 -39 -187
-70 -104 -65 -86 -62 -166 -19 -77 42 -151 66 -204 66 -36 0 -39 6 -22 44 11
24 15 25 78 20 117 -9 332 57 373 115 9 12 24 17 46 16 18 -1 35 2 38 7 3 5
15 5 27 1 12 -4 57 -8 100 -8z m-3353 -15 c0 -5 -4 -10 -10 -10 -5 0 -10 5
-10 10 0 6 5 10 10 10 6 0 10 -4 10 -10z m169 -71 c1 -27 2 -54 4 -59 1 -4 -2
-7 -8 -6 -5 0 -10 13 -10 29 0 15 -3 27 -7 27 -4 0 -2 14 3 30 6 17 12 30 13
30 2 0 4 -23 5 -51z m-49 -80 c0 -12 -27 -12 -35 1 -4 6 1 7 11 3 13 -5 15 -3
9 7 -5 9 -4 11 3 6 7 -4 12 -11 12 -17z m-60 -19 c0 -5 -7 -7 -15 -4 -8 4 -15
8 -15 10 0 2 7 4 15 4 8 0 15 -4 15 -10z m4216 -263 c-8 -7 -27 -50 -42 -97
-25 -79 -26 -85 -9 -95 45 -26 76 -60 102 -113 24 -50 28 -69 28 -147 0 -119
-24 -192 -77 -240 -44 -40 -70 -38 -38 2 39 49 53 127 46 243 -4 58 -11 122
-17 143 l-10 37 -84 0 c-66 0 -85 -3 -85 -14 0 -11 10 -13 40 -9 22 3 40 1 40
-4 0 -16 -53 -58 -80 -63 -25 -5 -25 -7 -28 -117 -2 -92 1 -120 17 -164 11
-29 19 -54 17 -56 -2 -2 -14 1 -28 6 -43 16 -71 98 -76 224 l-4 107 -67 1 -66
1 69 14 c51 10 73 19 84 36 37 53 90 100 127 112 39 13 41 16 79 119 36 97 40
105 58 96 17 -9 18 -12 4 -22z m-717 -84 c17 -45 82 -117 122 -133 27 -11 33
-10 58 8 31 23 41 20 41 -11 0 -17 5 -19 50 -15 59 6 120 43 153 93 23 36 37
44 37 22 0 -20 -66 -93 -107 -118 -20 -13 -57 -28 -83 -35 l-45 -11 -7 -152
c-3 -84 -8 -155 -11 -158 -3 -2 -15 0 -26 7 -19 9 -21 20 -21 93 0 138 -11
219 -27 212 -8 -3 -26 -8 -41 -12 -20 -5 -24 -3 -19 10 4 11 -9 24 -49 46 -49
28 -114 99 -114 124 0 15 51 67 65 67 6 0 17 -16 24 -37z m-189 -163 c11 0 20
-4 20 -10 0 -5 -12 -10 -26 -10 -25 0 -26 -2 -19 -37 4 -21 8 -40 10 -42 4 -4
68 42 105 76 23 20 30 22 60 11 19 -6 41 -13 48 -14 8 -3 11 -11 7 -24 -5 -14
-2 -20 9 -20 9 0 16 -4 16 -10 0 -13 -25 -13 -72 0 -33 10 -43 7 -100 -25
l-64 -35 -42 31 c-29 21 -42 38 -42 54 0 14 -7 25 -17 27 -14 3 -7 12 27 36
43 32 45 32 52 12 4 -11 16 -20 28 -20z m-1248 -156 c67 -35 144 -56 194 -55
39 1 53 -2 58 -14 5 -13 13 -15 37 -10 22 5 29 4 25 -4 -5 -7 -46 -11 -112
-11 -87 0 -112 4 -147 21 -66 34 -117 71 -111 80 8 13 21 11 56 -7z m-636
-289 c-5 -26 -12 -35 -27 -35 -11 0 -18 4 -15 9 3 4 -3 16 -14 26 -18 16 -20
16 -45 -10 -30 -29 -30 -29 -39 3 -6 19 -4 22 21 22 15 0 48 6 73 14 25 7 47
12 49 10 2 -2 0 -19 -3 -39z"/>
<path d="M5330 3350 c0 -20 431 -173 445 -158 9 9 -174 120 -218 132 -58 17
-227 35 -227 26z"/>
<path d="M5598 2828 c9 -9 15 -9 24 0 9 9 7 12 -12 12 -19 0 -21 -3 -12 -12z"/>
<path d="M5656 2781 c-8 -12 42 -71 60 -71 19 0 18 9 -6 48 -19 31 -43 41 -54
23z"/>
<path d="M9735 2308 c-3 -7 -4 -166 -3 -353 l3 -340 35 0 35 0 0 350 0 350
-33 3 c-20 2 -34 -2 -37 -10z"/>
<path d="M4760 2257 c-98 -27 -195 -118 -227 -210 -24 -72 -22 -178 5 -240 75
-167 275 -246 440 -172 l62 28 0 43 c0 45 -9 54 -29 30 -26 -31 -105 -59 -166
-59 -226 -2 -340 276 -182 441 53 56 102 76 182 76 70 0 106 -12 173 -60 22
-16 22 -16 22 30 l0 47 -56 26 c-67 30 -159 39 -224 20z"/>
<path d="M8112 2198 c-7 -7 -12 -21 -12 -33 0 -28 19 -45 50 -45 31 0 50 17
50 45 0 28 -19 45 -50 45 -14 0 -31 -5 -38 -12z"/>
<path d="M7210 2090 c0 -63 -2 -70 -20 -70 -16 0 -20 -7 -20 -35 0 -28 4 -35
20 -35 19 0 20 -8 22 -167 l3 -168 33 -3 32 -3 0 170 0 171 35 0 c33 0 35 2
35 35 0 33 -2 35 -35 35 l-35 0 0 70 0 70 -35 0 -35 0 0 -70z"/>
<path d="M7900 2091 c0 -60 -2 -69 -20 -74 -29 -7 -29 -67 0 -67 19 0 20 -8
22 -167 l3 -168 33 -3 32 -3 0 170 0 171 35 0 c33 0 35 2 35 35 0 33 -2 35
-35 35 l-35 0 0 70 0 70 -35 0 -35 0 0 -69z"/>
<path d="M5266 2015 c-61 -21 -88 -46 -119 -106 -36 -68 -34 -134 6 -202 86
-146 306 -131 372 25 46 111 -12 243 -124 283 -53 18 -84 18 -135 0z m139 -75
c91 -56 84 -208 -12 -255 -112 -55 -234 57 -194 178 11 34 53 80 81 90 34 12
94 6 125 -13z"/>
<path d="M5742 2010 c-39 -24 -42 -24 -42 -5 0 10 -11 15 -35 15 l-35 0 2
-202 3 -203 35 0 34 0 -3 92 c-4 131 7 202 35 230 29 29 75 30 100 2 17 -18
19 -40 22 -175 l3 -154 34 0 33 0 4 149 c3 142 4 151 27 175 31 33 80 35 107
5 17 -18 19 -41 22 -176 l4 -154 31 3 32 3 0 160 c0 143 -2 164 -20 195 -39
65 -132 77 -194 24 l-30 -25 -21 21 c-43 43 -97 51 -148 20z"/>
<path d="M6438 2021 c-15 -5 -41 -19 -58 -31 l-30 -21 0 25 c0 23 -4 26 -35
26 l-35 0 0 -315 0 -315 35 0 35 0 0 136 0 135 30 -21 c46 -33 91 -42 146 -30
65 15 102 44 130 104 64 137 -11 296 -146 311 -25 2 -57 0 -72 -4z m101 -75
c119 -62 72 -276 -61 -276 -75 0 -128 64 -128 153 0 103 101 168 189 123z"/>
<path d="M7495 2011 c-22 -10 -50 -29 -62 -42 -71 -77 -71 -232 0 -307 62 -66
171 -76 240 -22 33 26 37 25 37 -6 0 -23 3 -25 33 -22 l32 3 0 200 0 200 -32
3 c-30 3 -33 1 -33 -22 0 -27 -14 -34 -26 -15 -11 18 -86 49 -119 49 -16 0
-48 -9 -70 -19z m151 -70 c114 -69 63 -271 -68 -271 -73 0 -128 66 -128 153 0
106 108 172 196 118z"/>
<path d="M8432 2017 c-130 -48 -184 -208 -106 -320 100 -143 317 -113 372 52
55 162 -107 325 -266 268z m159 -93 c101 -97 28 -267 -108 -251 -100 11 -152
121 -104 216 39 76 150 94 212 35z"/>
<path d="M8945 2023 c-11 -3 -32 -14 -47 -25 -28 -19 -28 -19 -28 1 0 17 -6
21 -35 21 l-35 0 2 -202 3 -203 30 0 30 0 5 140 c7 177 21 205 103 205 63 0
71 -21 77 -194 l5 -151 30 0 30 0 3 146 c3 162 -7 210 -49 241 -27 20 -89 31
-124 21z"/>
<path d="M9345 2017 c-68 -26 -109 -76 -125 -151 -19 -91 16 -187 85 -232 61
-40 153 -37 208 6 l26 20 3 -22 c2 -18 11 -24 36 -26 l32 -3 0 206 0 206 -32
-3 c-25 -2 -34 -9 -38 -28 -4 -18 -8 -21 -14 -11 -13 20 -87 51 -121 50 -16 0
-44 -6 -60 -12z m135 -72 c76 -39 88 -172 22 -238 -21 -21 -42 -30 -73 -34
-54 -5 -86 11 -117 57 -20 30 -23 44 -20 99 4 58 7 66 41 97 42 39 96 45 147
19z"/>
<path d="M6770 1868 c0 -174 10 -208 70 -243 48 -27 140 -26 178 2 58 43 67
74 67 238 l0 150 -35 0 -35 0 -5 -153 c-5 -147 -6 -155 -29 -173 -13 -10 -38
-19 -56 -19 -18 0 -43 9 -56 19 -23 18 -24 26 -29 173 l-5 153 -32 3 -33 3 0
-153z"/>
<path d="M8114 2007 c-2 -7 -3 -98 -2 -202 l3 -190 33 -3 32 -3 0 205 0 206
-30 0 c-17 0 -33 -6 -36 -13z"/>
<path d="M5740 1398 c-61 -31 -90 -77 -90 -142 0 -85 24 -110 170 -181 97 -48
120 -72 120 -125 -1 -68 -54 -120 -123 -120 -55 0 -92 23 -114 70 -17 38 -20
41 -52 36 -18 -3 -35 -7 -38 -9 -8 -9 28 -82 55 -111 56 -59 158 -74 239 -35
107 52 143 193 72 283 -12 15 -67 49 -124 76 -130 62 -153 91 -123 155 15 33
56 55 104 55 28 0 44 -8 69 -33 32 -32 35 -33 59 -18 34 20 33 31 -6 68 -61
58 -141 70 -218 31z"/>
<path d="M6537 1352 c-36 -39 -12 -86 40 -80 20 2 30 11 38 32 8 24 6 31 -14
47 -29 24 -43 24 -64 1z"/>
<path d="M9500 1066 l0 -296 30 0 c23 0 31 5 36 25 l6 25 30 -25 c37 -31 67
-39 124 -32 95 10 153 90 154 211 0 81 -25 144 -71 177 -57 40 -146 37 -198
-7 l-30 -25 -3 118 -3 118 -37 3 -38 3 0 -295z m255 32 c103 -81 55 -278 -67
-278 -32 0 -47 7 -74 34 -33 33 -34 36 -34 116 0 80 1 83 34 116 42 42 97 47
141 12z"/>
<path d="M8720 1050 l0 -280 155 0 155 0 0 30 0 30 -120 0 -120 0 0 250 0 250
-35 0 -35 0 0 -280z"/>
<path d="M6210 1164 c-46 -20 -87 -60 -112 -108 -30 -59 -22 -151 18 -208 43
-63 102 -90 185 -86 92 5 119 24 119 84 l0 46 -35 -30 c-78 -69 -189 -43 -224
51 -16 42 -13 76 9 122 39 80 132 100 208 45 l42 -30 0 45 c0 44 -2 47 -42 65
-51 23 -120 25 -168 4z"/>
<path d="M6836 1170 c-42 -13 -93 -67 -112 -116 -24 -64 -16 -160 19 -213 70
-105 241 -110 321 -9 l26 33 -23 17 c-29 23 -30 23 -69 -16 -44 -44 -80 -53
-131 -35 -43 15 -72 47 -83 92 l-6 27 157 0 158 0 -5 48 c-10 106 -74 173
-171 178 -29 2 -65 -1 -81 -6z m130 -76 c22 -15 54 -61 54 -79 0 -3 -52 -5
-115 -5 -106 0 -115 1 -115 19 0 10 16 33 35 50 41 36 99 42 141 15z"/>
<path d="M7320 1173 c-8 -3 -27 -15 -42 -25 -28 -19 -28 -19 -28 1 0 17 -6 21
-35 21 l-35 0 0 -200 0 -200 35 0 35 0 0 108 c1 190 20 232 106 232 68 0 74
-16 74 -192 l0 -148 35 0 35 0 0 159 c0 148 -1 160 -23 192 -12 18 -34 39 -47
46 -26 13 -83 16 -110 6z"/>
<path d="M7732 1169 c-77 -22 -142 -118 -142 -209 0 -57 42 -135 90 -166 54
-36 141 -44 205 -19 l45 17 0 50 0 50 -35 -30 c-84 -75 -193 -41 -227 69 -25
86 41 179 128 179 49 0 76 -10 112 -43 l22 -20 0 47 c0 46 -1 48 -42 66 -46
21 -103 24 -156 9z"/>
<path d="M8126 1170 c-42 -13 -93 -67 -112 -116 -24 -64 -16 -160 19 -213 70
-105 241 -110 321 -9 l26 33 -23 17 c-29 23 -30 23 -69 -16 -44 -44 -80 -53
-131 -35 -43 15 -72 47 -83 92 l-6 27 156 0 156 0 0 42 c0 58 -35 124 -82 155
-43 29 -121 39 -172 23z m132 -76 c19 -13 52 -63 52 -79 0 -3 -52 -5 -115 -5
-106 0 -115 1 -115 19 0 10 16 33 35 50 28 24 45 31 78 31 23 0 53 -7 65 -16z"/>
<path d="M9147 1165 c-48 -16 -47 -15 -36 -44 7 -17 14 -21 27 -16 36 16 88
21 120 13 25 -7 37 -18 48 -44 8 -19 12 -39 10 -43 -3 -5 -33 -11 -66 -14
-107 -9 -172 -60 -174 -135 -1 -51 18 -86 59 -108 41 -22 116 -15 157 16 l29
22 6 -21 c4 -15 13 -21 35 -21 l30 0 -4 158 c-3 175 -10 195 -71 232 -38 24
-113 26 -170 5z m173 -232 c0 -53 -19 -85 -61 -106 -29 -14 -42 -15 -65 -7
-35 14 -44 26 -44 66 0 50 49 82 128 83 l42 1 0 -37z"/>
<path d="M6530 970 l0 -200 35 0 35 0 0 200 0 200 -35 0 -35 0 0 -200z"/>
<path d="M5475 977 c-22 -19 -69 -55 -105 -82 l-65 -48 40 8 c22 5 60 7 84 6
39 -2 43 0 31 14 -18 22 -4 31 29 18 28 -10 29 -9 34 22 3 17 2 46 -1 64 l-7
32 -40 -34z"/>
<path d="M5890 659 c0 -5 5 -7 10 -4 6 3 10 8 10 11 0 2 -4 4 -10 4 -5 0 -10
-5 -10 -11z"/>
<path d="M4123 3123 c-62 -31 -35 -35 55 -8 12 4 22 11 22 16 0 14 -42 9 -77
-8z"/>
<path d="M3510 1425 c-14 -8 -34 -14 -44 -15 -11 0 -16 -3 -12 -7 4 -5 -9 -13
-31 -19 -41 -12 -51 -38 -22 -57 13 -8 28 -2 67 26 27 21 71 46 96 58 25 11
46 22 46 24 0 11 -77 3 -100 -10z"/>
<path d="M4505 870 c-3 -6 1 -7 9 -4 18 7 21 14 7 14 -6 0 -13 -4 -16 -10z"/>
</g>
</svg>
