<svg xmlns="http://www.w3.org/2000/svg" xmlns:xlink="http://www.w3.org/1999/xlink" width="300" height="300" viewBox="72694.97997599999 447330.102876 16758.984348000013 13857.995248000021" preserveAspectRatio="xMinYMin meet"><g transform="matrix(1,0,0,-1,0,908518.201)"><g><path fill-rule="evenodd" fill="#66cc99" stroke="#555555" stroke-width="111.72656232000008" opacity="0.6" d="M 82600.184,457862.56 L 82723.561,457724.884 L 82102.4689,457307.7525 L 82377.5696,456908.4157 L 83058.457,457244.822 L 83146.783,457095.027 L 83339.311,457193.251 L 83403.4403,457096.5595 L 83502.103,457164.8758 L 84524.3156,458001.5776 L 84547.5701,457975.4424 L 84848.4709,457556.8507 L 84922.0454,457444.7722 L 85302.933,456911.835 L 85481.565,456765.613 L 85394.963,456662.456 L 85527.6155,456495.0529 L 85500.778,456463.3852 L 85153.0002,456205.4601 L 85135.59,456192.9902 L 84520.6193,455753.9274 L 84373.7974,455649.7638 L 84126.251,455475.4474 L 84076.9115,455441.068 L 83565.52,455091.179 L 83584.9231,455049.8128 L 83139.795,454783.5608 L 83132.411,454778.408 L 82880.3835,454602.5094 L 84221.4892,453832.1574 L 84261.366,453808.16 L 83336.8489,453053.01 L 83490.9899,452881.9894 L 83727.731,452531.487 L 84025.702,452849.477 L 84095.515,452767.726 L 84141.356,452802.521 L 84368.314,452495.276 L 84539.66,452616.542 L 84524.118,452709.393 L 84610.205,452738.168 L 84285.654,453088.1264 L 84826.2138,453481.2678 L 84839.4578,453497.49 L 85354.6096,453964.3835 L 85949.942,454530.56 L 86251.3479,454683.9572 L 86266.673,454691.886 L 86540.565,454325.312 L 86767.4492,454517.0542 L 86954.343,454646.015 L 87122.0701,454516.4997 L 87594.9488,454852.9546 L 87730.4901,454711.8202 L 88131.8901,454210.2901 L 88490.72,453547.55 L 88722.98,453236.63 L 88731.408,453139.134 L 88702.684,453086.228 L 88833.2612,452553.541 L 88350.87,452572.4201 L 88800.301,451924.585 L 87382.0514,452128.6196 L 87292.4886,452022.1424 L 87186.2106,451895.6484 L 86909.0,452215.0 L 86678.501,451984.238 L 86575.677,451764.181 L 86456.007,451900.259 L 86330.283,451768.2248 L 86312.3346,451749.3762 L 85773.6624,451183.68 L 85394.3348,450775.3784 L 85880.633,450214.957 L 85972.0,450262.0 L 86358.5595,450485.6313 L 86432.844,450484.458 L 86841.6253,449879.1589 L 85857.971,449189.387 L 85439.1166,449847.9504 L 84738.8064,449356.7951 L 84671.6018,449312.5461 L 84521.5402,449210.8797 L 84487.8267,449187.3943 L 84425.545,449276.366 L 84352.171,449225.026 L 84352.05,449338.33 L 84154.94,449625.64 L 84082.85,449653.11 L 83862.32,450617.32 L 83628.5844,450971.5783 L 83598.063,451234.976 L 83789.8424,451461.0202 L 84010.0522,451602.1472 L 84033.875,451703.366 L 83496.485,452250.094 L 83651.569,452550.454 L 83449.6707,452840.9807 L 83190.5916,453129.8205 L 82851.3219,452892.7232 L 82833.4087,452881.0021 L 82517.2058,452642.1233 L 82400.6,452556.276 L 82332.12,452601.151 L 82330.307,452546.635 L 82181.8401,452436.2468 L 82088.5587,452460.5612 L 81896.98,452348.641 L 81932.457,452174.013 L 81554.2423,451936.8673 L 81322.221,451858.176 L 81111.3719,451698.4622 L 81095.4811,451688.1555 L 80721.72,451480.6639 L 80641.0312,451514.8571 L 80305.366,451364.186 L 80329.858,451302.856 L 80226.904,451255.525 L 80247.746,451199.308 L 80192.588,451162.303 L 79964.113,451091.742 L 79991.553,451033.22 L 79790.027,450928.607 L 79839.8573,450794.9183 L 80296.27,449613.334 L 80245.8666,449574.8523 L 80246.81,449572.4601 L 80448.639,449178.2695 L 80665.8999,448753.9201 L 80674.1792,448737.5834 L 80896.063,448305.812 L 80551.854,448125.857 L 80445.101,448281.111 L 80058.195,447950.806 L 79666.4513,448268.1734 L 79985.5988,448453.7692 L 79487.359,448851.9011 L 79472.0203,448863.0892 L 79575.003,448949.459 L 79364.822,449159.627 L 79399.912,449192.027 L 79359.0845,449232.0375 L 79416.896,449254.878 L 79374.977,449360.278 L 79251.945,449281.795 L 79207.228,449385.5117 L 79134.1275,449357.9142 L 78878.9527,449929.3203 L 78740.075,449830.1481 L 78546.3299,450273.8188 L 78525.693,450318.498 L 78107.8388,450001.0137 L 77586.4217,449626.8274 L 77395.1735,449493.7074 L 77305.483,449497.519 L 76829.7969,449155.1271 L 76374.8139,449910.4764 L 75951.2112,450730.2514 L 75481.4244,450224.2623 L 74855.492,450133.558 L 74371.7666,449809.2653 L 74193.754,450135.111 L 74389.973,450174.036 L 74164.5392,450649.6477 L 73841.5353,451367.1146 L 73838.6371,451372.9689 L 73487.22,451965.75 L 73553.5897,452045.783 L 73317.0657,452604.0646 L 73315.6831,452607.328 L 73916.007,453144.49 L 74413.6566,453713.2523 L 75724.5535,455126.0061 L 76623.8265,456172.225 L 77437.6066,457250.9861 L 77510.2293,457414.9139 L 77346.8048,457602.8048 L 77257.9978,457908.3269 L 77373.7822,457625.5873 L 77646.7023,457306.136 L 77758.969,457350.454 L 77802.5753,457312.1384 L 77813.353,457269.0539 L 77697.0045,457221.853 L 77720.9123,457129.565 L 77833.9345,457158.9144 L 78019.2825,457111.5658 L 78082.0728,457177.402 L 78009.9579,457264.3498 L 78050.9725,457304.3135 L 78236.5649,457158.8256 L 77976.392,456883.294 L 78044.9105,456817.224 L 78570.1665,457400.258 L 78505.9683,457455.5985 L 78256.2985,457173.7746 L 78136.1914,457315.5229 L 78367.7793,457574.9166 L 78265.0975,457665.2015 L 77982.9731,457353.6289 L 77850.8973,457372.116 L 77812.0453,457412.6303 L 77839.496,457525.852 L 77688.4379,457624.3573 L 77619.3804,457846.8734 L 77494.4519,457895.2615 L 77512.8379,457930.9058 L 77649.497,457869.256 L 77694.275,457732.268 L 77881.639,457779.313 L 78112.6625,458080.8034 L 78406.4435,458331.742 L 79170.4021,459155.7611 L 79269.4053,459252.2693 L 79282.451,459262.839 L 79645.07,459553.8365 L 80754.1846,460567.395 L 82498.8175,458423.3189 L 82505.9742,458414.5518 L 82782.451,458023.435 L 82600.184,457862.56 z" /></g></g></svg>